<?xml version="1.0" encoding="utf-8" standalone="no"?>
<!DOCTYPE svg PUBLIC "-//W3C//DTD SVG 1.1//EN" "http://www.w3.org/Graphics/SVG/1.1/DTD/svg11.dtd">
<svg xmlns="http://www.w3.org/2000/svg" xmlns:xl="http://www.w3.org/1999/xlink" version="1.1" viewBox="24 13 740 496" width="740pt" height="496pt" xmlns:dc="http://purl.org/dc/elements/1.1/"><metadata> Produced by OmniGraffle 6.2 <dc:date>2015-04-14 09:52:33 +0000</dc:date></metadata><defs><marker orient="auto" overflow="visible" markerUnits="strokeWidth" id="FilledArrow_Marker" viewBox="-1 -3 6 6" markerWidth="6" markerHeight="6" color="black"><g><path d="M 3.2 0 L 0 -1.2 L 0 1.2 Z" fill="currentColor" stroke="currentColor" stroke-width="1"/></g></marker></defs><g stroke="none" stroke-opacity="1" stroke-dasharray="none" fill="none" fill-opacity="1"><title>Canvas 1</title><rect fill="white" width="806" height="536"/><g><title>Layer 1</title><rect x="25.511811" y="14.173228" width="737.00787" height="493.22834" fill="#66f" fill-opacity=".19"/><rect x="25.511811" y="14.173228" width="737.00787" height="493.22834" stroke="black" stroke-linecap="round" stroke-linejoin="round" stroke-width="0"/><rect x="93.543307" y="198.4252" width="442.20472" height="300.47244" fill="#ffa249" fill-opacity=".19"/><rect x="93.543307" y="198.4252" width="442.20472" height="300.47244" stroke="black" stroke-linecap="round" stroke-linejoin="round" stroke-width="0"/><rect x="45.35433" y="25.511811" width="702.99212" height="127.559054" fill="#ffa249" fill-opacity=".19"/><rect x="45.35433" y="25.511811" width="702.99212" height="127.559054" stroke="black" stroke-linecap="round" stroke-linejoin="round" stroke-width="0"/><rect x="90.70866" y="34.015748" width="116.22047" height="110.55118" fill="#a0c4ff"/><rect x="90.70866" y="34.015748" width="116.22047" height="110.55118" stroke="black" stroke-linecap="round" stroke-linejoin="round" stroke-width="0"/><rect x="337.32283" y="34.015748" width="116.22047" height="110.55118" fill="#a0c4ff"/><rect x="337.32283" y="34.015748" width="116.22047" height="110.55118" stroke="black" stroke-linecap="round" stroke-linejoin="round" stroke-width="0"/><circle cx="337.32283" cy="62.362204" r="14.173251" fill="#42ff23" fill-opacity=".46"/><circle cx="337.32283" cy="62.362204" r="14.173251" stroke="black" stroke-linecap="round" stroke-linejoin="round" stroke-width="0"/><circle cx="90.70866" cy="62.362204" r="14.173251" fill="#42ff23" fill-opacity=".46"/><circle cx="90.70866" cy="62.362204" r="14.173251" stroke="black" stroke-linecap="round" stroke-linejoin="round" stroke-width="0"/><rect x="623.62204" y="34.015748" width="116.22047" height="110.55118" fill="#a0c4ff"/><rect x="623.62204" y="34.015748" width="116.22047" height="110.55118" stroke="black" stroke-linecap="round" stroke-linejoin="round" stroke-width="0"/><circle cx="623.62204" cy="62.362204" r="14.173251" fill="#42ff23" fill-opacity=".46"/><circle cx="623.62204" cy="62.362204" r="14.173251" stroke="black" stroke-linecap="round" stroke-linejoin="round" stroke-width="0"/><circle cx="623.62204" cy="119.05512" r="14.173251" fill="#42ff23" fill-opacity=".46"/><circle cx="623.62204" cy="119.05512" r="14.173251" stroke="black" stroke-linecap="round" stroke-linejoin="round" stroke-width="0"/><circle cx="206.92913" cy="113.385826" r="14.173251" fill="#42ff23" fill-opacity=".46"/><circle cx="206.92913" cy="113.385826" r="14.173251" stroke="black" stroke-linecap="round" stroke-linejoin="round" stroke-width="0"/><circle cx="206.92913" cy="62.362204" r="14.173251" fill="#42ff23" fill-opacity=".46"/><circle cx="206.92913" cy="62.362204" r="14.173251" stroke="black" stroke-linecap="round" stroke-linejoin="round" stroke-width="0"/><path d="M 245.6954 117.25467 C 257.23426 121.31961 272.12598 128.5669 272.12598 138.89764 C 272.12598 155.76209 279.82203 160.86735 232.44094 172.91338 C 185.05986 184.95942 150.65684 167.76514 104.88189 181.41732 C 59.10694 195.0695 67.653864 206.64711 70.86614 221.10236 C 71.924454 225.86477 77.208323 228.71987 83.818583 230.40749" marker-end="url(#FilledArrow_Marker)" stroke="black" stroke-linecap="round" stroke-linejoin="round" stroke-width="4"/><line x1="221.10237" y1="62.362204" x2="304.2496" y2="62.362204" marker-end="url(#FilledArrow_Marker)" stroke="black" stroke-linecap="round" stroke-linejoin="round" stroke-width="4"/><path d="M 495.5608 231.84096 C 509.54067 227.37941 531.0282 217.75223 544.25197 198.4252 C 565.13177 167.90856 538.7261 150.044995 555.59055 127.559054 C 559.96266 121.72957 565.30665 118.35112 570.82474 116.544644" marker-end="url(#FilledArrow_Marker)" stroke="black" stroke-linecap="round" stroke-linejoin="round" stroke-width="4"/><path d="M 215.43307 127.559054 L 222.23622 127.559054 C 239.2441 126.14173 240.94488 121.88976 249.44882 113.385826 C 240.94488 104.88189 239.2441 100.62992 222.23622 99.2126 L 215.43307 99.2126 C 217.13386 104.88189 217.98425 105.59055 218.83464 113.385826 C 217.98425 121.1811 217.13386 121.88976 215.43307 127.559054" fill="#ff91f6"/><path d="M 215.43307 127.559054 L 222.23622 127.559054 C 239.2441 126.14173 240.94488 121.88976 249.44882 113.385826 C 240.94488 104.88189 239.2441 100.62992 222.23622 99.2126 L 215.43307 99.2126 C 217.13386 104.88189 217.98425 105.59055 218.83464 113.385826 C 217.98425 121.1811 217.13386 121.88976 215.43307 127.559054" stroke="black" stroke-linecap="round" stroke-linejoin="round" stroke-width="0"/><path d="M 586.77165 133.228346 L 593.5748 133.228346 C 610.58267 131.81102 612.28346 127.559054 620.7874 119.05512 C 612.28346 110.55118 610.58267 106.29921 593.5748 104.88189 L 586.77165 104.88189 C 588.47244 110.55118 589.32283 111.25984 590.17322 119.05512 C 589.32283 126.85039 588.47244 127.559054 586.77165 133.228346" fill="#ff91f6"/><path d="M 586.77165 133.228346 L 593.5748 133.228346 C 610.58267 131.81102 612.28346 127.559054 620.7874 119.05512 C 612.28346 110.55118 610.58267 106.29921 593.5748 104.88189 L 586.77165 104.88189 C 588.47244 110.55118 589.32283 111.25984 590.17322 119.05512 C 589.32283 126.85039 588.47244 127.559054 586.77165 133.228346" stroke="black" stroke-linecap="round" stroke-linejoin="round" stroke-width="0"/><path d="M 464.8819 249.44882 L 471.68504 249.44882 C 488.6929 248.0315 490.3937 243.77953 498.89763 235.27559 C 490.3937 226.77165 488.6929 222.51968 471.68504 221.10236 L 464.8819 221.10236 C 466.58267 226.77165 467.43307 227.48031 468.28346 235.27559 C 467.43307 243.07086 466.58267 243.77953 464.8819 249.44882" fill="#ff91f6"/><path d="M 464.8819 249.44882 L 471.68504 249.44882 C 488.6929 248.0315 490.3937 243.77953 498.89763 235.27559 C 490.3937 226.77165 488.6929 222.51968 471.68504 221.10236 L 464.8819 221.10236 C 466.58267 226.77165 467.43307 227.48031 468.28346 235.27559 C 467.43307 243.07086 466.58267 243.77953 464.8819 249.44882" stroke="black" stroke-linecap="round" stroke-linejoin="round" stroke-width="0"/><path d="M 51.023622 76.535433 L 57.82677 76.535433 C 74.834645 75.11811 76.535433 70.86614 85.03937 62.362204 C 76.535433 53.858267 74.834645 49.6063 57.82677 48.188976 L 51.023622 48.188976 C 52.72441 53.858267 53.574803 54.56693 54.425197 62.362204 C 53.574803 70.15748 52.72441 70.86614 51.023622 76.535433" fill="#ff91f6"/><path d="M 51.023622 76.535433 L 57.82677 76.535433 C 74.834645 75.11811 76.535433 70.86614 85.03937 62.362204 C 76.535433 53.858267 74.834645 49.6063 57.82677 48.188976 L 51.023622 48.188976 C 52.72441 53.858267 53.574803 54.56693 54.425197 62.362204 C 53.574803 70.15748 52.72441 70.86614 51.023622 76.535433" stroke="black" stroke-linecap="round" stroke-linejoin="round" stroke-width="0"/><rect x="136.06299" y="206.92913" width="116.22047" height="110.55118" fill="#a0c4ff"/><rect x="136.06299" y="206.92913" width="116.22047" height="110.55118" stroke="black" stroke-linecap="round" stroke-linejoin="round" stroke-width="0"/><circle cx="136.06299" cy="232.44094" r="14.173251" fill="#42ff23" fill-opacity=".46"/><circle cx="136.06299" cy="232.44094" r="14.173251" stroke="black" stroke-linecap="round" stroke-linejoin="round" stroke-width="0"/><path d="M 99.2126 246.61417 L 106.01575 246.61417 C 123.02362 245.19685 124.72441 240.94488 133.228346 232.44094 C 124.72441 223.937 123.02362 219.68504 106.01575 218.26772 L 99.2126 218.26772 C 100.913385 223.937 101.76378 224.64567 102.61417 232.44094 C 101.76378 240.23622 100.913385 240.94488 99.2126 246.61417" fill="#ff91f6"/><path d="M 99.2126 246.61417 L 106.01575 246.61417 C 123.02362 245.19685 124.72441 240.94488 133.228346 232.44094 C 124.72441 223.937 123.02362 219.68504 106.01575 218.26772 L 99.2126 218.26772 C 100.913385 223.937 101.76378 224.64567 102.61417 232.44094 C 101.76378 240.23622 100.913385 240.94488 99.2126 246.61417" stroke="black" stroke-linecap="round" stroke-linejoin="round" stroke-width="0"/><rect x="337.32283" y="206.92913" width="116.22047" height="110.55118" fill="#a0c4ff"/><rect x="337.32283" y="206.92913" width="116.22047" height="110.55118" stroke="black" stroke-linecap="round" stroke-linejoin="round" stroke-width="0"/><circle cx="337.32283" cy="235.27559" r="14.173251" fill="#42ff23" fill-opacity=".46"/><circle cx="337.32283" cy="235.27559" r="14.173251" stroke="black" stroke-linecap="round" stroke-linejoin="round" stroke-width="0"/><circle cx="252.28346" cy="235.27559" r="14.173251" fill="#42ff23" fill-opacity=".46"/><circle cx="252.28346" cy="235.27559" r="14.173251" stroke="black" stroke-linecap="round" stroke-linejoin="round" stroke-width="0"/><line x1="266.4567" y1="235.27559" x2="304.2496" y2="235.27559" marker-end="url(#FilledArrow_Marker)" stroke="black" stroke-linecap="round" stroke-linejoin="round" stroke-width="4"/><circle cx="456.37795" cy="65.19685" r="14.173251" fill="#42ff23" fill-opacity=".46"/><circle cx="456.37795" cy="65.19685" r="14.173251" stroke="black" stroke-linecap="round" stroke-linejoin="round" stroke-width="0"/><line x1="470.54916" y1="64.95666" x2="590.55355" y2="62.922687" marker-end="url(#FilledArrow_Marker)" stroke="black" stroke-linecap="round" stroke-linejoin="round" stroke-width="4"/><circle cx="456.37795" cy="235.27559" r="14.173251" fill="#42ff23" fill-opacity=".46"/><circle cx="456.37795" cy="235.27559" r="14.173251" stroke="black" stroke-linecap="round" stroke-linejoin="round" stroke-width="0"/><rect x="317.48031" y="360" width="204.09449" height="127.559054" fill="#ffa249" fill-opacity=".19"/><rect x="317.48031" y="360" width="204.09449" height="127.559054" stroke="black" stroke-linecap="round" stroke-linejoin="round" stroke-width="0"/><rect x="360" y="368.50393" width="116.22047" height="110.55118" fill="#a0c4ff"/><rect x="360" y="368.50393" width="116.22047" height="110.55118" stroke="black" stroke-linecap="round" stroke-linejoin="round" stroke-width="0"/><circle cx="360" cy="394.01575" r="14.173251" fill="#42ff23" fill-opacity=".46"/><circle cx="360" cy="394.01575" r="14.173251" stroke="black" stroke-linecap="round" stroke-linejoin="round" stroke-width="0"/><path d="M 323.1496 408.18897 L 329.95275 408.18897 C 346.96063 406.77165 348.66142 402.51968 357.16535 394.01575 C 348.66142 385.5118 346.96063 381.25984 329.95275 379.84252 L 323.1496 379.84252 C 324.8504 385.5118 325.70079 386.22047 326.55118 394.01575 C 325.70079 401.81102 324.8504 402.51968 323.1496 408.18897" fill="#ff91f6"/><path d="M 323.1496 408.18897 L 329.95275 408.18897 C 346.96063 406.77165 348.66142 402.51968 357.16535 394.01575 C 348.66142 385.5118 346.96063 381.25984 329.95275 379.84252 L 323.1496 379.84252 C 324.8504 385.5118 325.70079 386.22047 326.55118 394.01575 C 325.70079 401.81102 324.8504 402.51968 323.1496 408.18897" stroke="black" stroke-linecap="round" stroke-linejoin="round" stroke-width="0"/><circle cx="476.22047" cy="396.8504" r="14.173251" fill="#42ff23" fill-opacity=".46"/><circle cx="476.22047" cy="396.8504" r="14.173251" stroke="black" stroke-linecap="round" stroke-linejoin="round" stroke-width="0"/><path d="M 481.88976 411.02362 L 488.6929 411.02362 C 505.70078 409.6063 507.40157 405.35433 515.9055 396.8504 C 507.40157 388.34645 505.70078 384.09449 488.6929 382.67716 L 481.88976 382.67716 C 483.59055 388.34645 484.44094 389.05512 485.29134 396.8504 C 484.44094 404.64567 483.59055 405.35433 481.88976 411.02362" fill="#ff91f6"/><path d="M 481.88976 411.02362 L 488.6929 411.02362 C 505.70078 409.6063 507.40157 405.35433 515.9055 396.8504 C 507.40157 388.34645 505.70078 384.09449 488.6929 382.67716 L 481.88976 382.67716 C 483.59055 388.34645 484.44094 389.05512 485.29134 396.8504 C 484.44094 404.64567 483.59055 405.35433 481.88976 411.02362" stroke="black" stroke-linecap="round" stroke-linejoin="round" stroke-width="0"/><path d="M 511.04105 391.83576 C 527.6682 383.42009 556.91906 362.71605 569.76378 317.48031 C 588.23437 252.4317 554.45765 223.45894 564.0945 167.24409 C 566.79938 151.46555 571.11234 140.74807 575.91755 133.49363" marker-end="url(#FilledArrow_Marker)" stroke="black" stroke-linecap="round" stroke-linejoin="round" stroke-width="4"/><circle cx="252.28346" cy="294.80315" r="14.173251" fill="#42ff23" fill-opacity=".46"/><circle cx="252.28346" cy="294.80315" r="14.173251" stroke="black" stroke-linecap="round" stroke-linejoin="round" stroke-width="0"/><path d="M 290.64512 296.14564 C 302.29703 298.09874 315.57255 302.8909 311.81102 314.64567 C 305.38647 334.7224 244.25277 343.18335 252.28346 365.6693 C 256.84528 378.44237 284.57943 385.8508 307.68796 389.86773" marker-end="url(#FilledArrow_Marker)" stroke="black" stroke-linecap="round" stroke-linejoin="round" stroke-width="4"/><path d="M 257.95275 308.97638 L 264.7559 308.97638 C 281.76378 307.55905 283.46457 303.30708 291.9685 294.80315 C 283.46457 286.29921 281.76378 282.04724 264.7559 280.62992 L 257.95275 280.62992 C 259.65354 286.29921 260.50394 287.00787 261.35433 294.80315 C 260.50394 302.59842 259.65354 303.30708 257.95275 308.97638" fill="#ff91f6"/><path d="M 257.95275 308.97638 L 264.7559 308.97638 C 281.76378 307.55905 283.46457 303.30708 291.9685 294.80315 C 283.46457 286.29921 281.76378 282.04724 264.7559 280.62992 L 257.95275 280.62992 C 259.65354 286.29921 260.50394 287.00787 261.35433 294.80315 C 260.50394 302.59842 259.65354 303.30708 257.95275 308.97638" stroke="black" stroke-linecap="round" stroke-linejoin="round" stroke-width="0"/></g></g></svg>
