<?xml version="1.0" encoding="utf-8" standalone="no"?>
<!DOCTYPE svg PUBLIC "-//W3C//DTD SVG 1.1//EN" "http://www.w3.org/Graphics/SVG/1.1/DTD/svg11.dtd">
<svg xmlns="http://www.w3.org/2000/svg" xmlns:xl="http://www.w3.org/1999/xlink" version="1.1" viewBox="27 33 740 314" width="740pt" height="314pt" xmlns:dc="http://purl.org/dc/elements/1.1/"><metadata> Produced by OmniGraffle 6.2 <dc:date>2015-04-13 09:51:12 +0000</dc:date></metadata><defs><marker orient="auto" overflow="visible" markerUnits="strokeWidth" id="FilledArrow_Marker" viewBox="-1 -3 6 6" markerWidth="6" markerHeight="6" color="black"><g><path d="M 3.2 0 L 0 -1.2 L 0 1.2 Z" fill="currentColor" stroke="currentColor" stroke-width="1"/></g></marker></defs><g stroke="none" stroke-opacity="1" stroke-dasharray="none" fill="none" fill-opacity="1"><title>Canvas 1</title><rect fill="white" width="806" height="536"/><g><title>Layer 1</title><rect x="28.346457" y="34.015748" width="737.00787" height="311.81102" fill="#66f" fill-opacity=".19"/><rect x="28.346457" y="34.015748" width="737.00787" height="311.81102" stroke="black" stroke-linecap="round" stroke-linejoin="round" stroke-width="0"/><rect x="90.70866" y="48.188976" width="116.22047" height="110.55118" fill="#a0c4ff"/><rect x="90.70866" y="48.188976" width="116.22047" height="110.55118" stroke="black" stroke-linecap="round" stroke-linejoin="round" stroke-width="0"/><rect x="337.32283" y="48.188976" width="116.22047" height="110.55118" fill="#a0c4ff"/><rect x="337.32283" y="48.188976" width="116.22047" height="110.55118" stroke="black" stroke-linecap="round" stroke-linejoin="round" stroke-width="0"/><circle cx="337.32283" cy="76.535433" r="14.173251" fill="#42ff23" fill-opacity=".46"/><circle cx="337.32283" cy="76.535433" r="14.173251" stroke="black" stroke-linecap="round" stroke-linejoin="round" stroke-width="0"/><circle cx="90.70866" cy="76.535433" r="14.173251" fill="#42ff23" fill-opacity=".46"/><circle cx="90.70866" cy="76.535433" r="14.173251" stroke="black" stroke-linecap="round" stroke-linejoin="round" stroke-width="0"/><rect x="623.62204" y="48.188976" width="116.22047" height="110.55118" fill="#a0c4ff"/><rect x="623.62204" y="48.188976" width="116.22047" height="110.55118" stroke="black" stroke-linecap="round" stroke-linejoin="round" stroke-width="0"/><circle cx="623.62204" cy="76.535433" r="14.173251" fill="#42ff23" fill-opacity=".46"/><circle cx="623.62204" cy="76.535433" r="14.173251" stroke="black" stroke-linecap="round" stroke-linejoin="round" stroke-width="0"/><circle cx="623.62204" cy="133.228346" r="14.173251" fill="#42ff23" fill-opacity=".46"/><circle cx="623.62204" cy="133.228346" r="14.173251" stroke="black" stroke-linecap="round" stroke-linejoin="round" stroke-width="0"/><circle cx="206.92913" cy="127.559054" r="14.173251" fill="#42ff23" fill-opacity=".46"/><circle cx="206.92913" cy="127.559054" r="14.173251" stroke="black" stroke-linecap="round" stroke-linejoin="round" stroke-width="0"/><circle cx="206.92913" cy="76.535433" r="14.173251" fill="#42ff23" fill-opacity=".46"/><circle cx="206.92913" cy="76.535433" r="14.173251" stroke="black" stroke-linecap="round" stroke-linejoin="round" stroke-width="0"/><path d="M 247.37392 129.678076 C 257.31894 132.05227 268.25998 137.03269 266.45669 147.40157 C 263.24441 165.87217 266.87731 179.10373 221.10236 192.7559 C 175.32741 206.40808 147.44456 183.54451 104.88189 195.59055 C 62.319216 207.63659 67.653864 220.82034 70.86614 235.27559 C 71.924454 240.038 77.208323 242.8931 83.818583 244.58072" marker-end="url(#FilledArrow_Marker)" stroke="black" stroke-linecap="round" stroke-linejoin="round" stroke-width="4"/><line x1="221.10237" y1="76.535433" x2="304.2496" y2="76.535433" marker-end="url(#FilledArrow_Marker)" stroke="black" stroke-linecap="round" stroke-linejoin="round" stroke-width="4"/><path d="M 497.43304 247.96106 C 511.9197 245.47078 533.30297 238.82418 547.0866 221.10236 C 569.57255 192.19187 545.19845 172.29672 561.25984 147.40157 C 564.45747 142.44525 568.0672 138.90065 571.79817 136.4021" marker-end="url(#FilledArrow_Marker)" stroke="black" stroke-linecap="round" stroke-linejoin="round" stroke-width="4"/><path d="M 215.43307 141.73228 L 222.23622 141.73228 C 239.2441 140.31496 240.94488 136.06299 249.44882 127.559054 C 240.94488 119.05512 239.2441 114.80315 222.23622 113.385826 L 215.43307 113.385826 C 217.13386 119.05512 217.98425 119.76378 218.83464 127.559054 C 217.98425 135.35433 217.13386 136.06299 215.43307 141.73228" fill="#ff91f6"/><path d="M 215.43307 141.73228 L 222.23622 141.73228 C 239.2441 140.31496 240.94488 136.06299 249.44882 127.559054 C 240.94488 119.05512 239.2441 114.80315 222.23622 113.385826 L 215.43307 113.385826 C 217.13386 119.05512 217.98425 119.76378 218.83464 127.559054 C 217.98425 135.35433 217.13386 136.06299 215.43307 141.73228" stroke="black" stroke-linecap="round" stroke-linejoin="round" stroke-width="0"/><path d="M 586.77165 147.40157 L 593.5748 147.40157 C 610.58267 145.98425 612.28346 141.73228 620.7874 133.228346 C 612.28346 124.72441 610.58267 120.47244 593.5748 119.05512 L 586.77165 119.05512 C 588.47244 124.72441 589.32283 125.43307 590.17322 133.228346 C 589.32283 141.02362 588.47244 141.73228 586.77165 147.40157" fill="#ff91f6"/><path d="M 586.77165 147.40157 L 593.5748 147.40157 C 610.58267 145.98425 612.28346 141.73228 620.7874 133.228346 C 612.28346 124.72441 610.58267 120.47244 593.5748 119.05512 L 586.77165 119.05512 C 588.47244 124.72441 589.32283 125.43307 590.17322 133.228346 C 589.32283 141.02362 588.47244 141.73228 586.77165 147.40157" stroke="black" stroke-linecap="round" stroke-linejoin="round" stroke-width="0"/><path d="M 464.8819 263.62205 L 471.68504 263.62205 C 488.6929 262.20472 490.3937 257.95275 498.89763 249.44882 C 490.3937 240.94488 488.6929 236.69291 471.68504 235.27559 L 464.8819 235.27559 C 466.58267 240.94488 467.43307 241.65354 468.28346 249.44882 C 467.43307 257.2441 466.58267 257.95275 464.8819 263.62205" fill="#ff91f6"/><path d="M 464.8819 263.62205 L 471.68504 263.62205 C 488.6929 262.20472 490.3937 257.95275 498.89763 249.44882 C 490.3937 240.94488 488.6929 236.69291 471.68504 235.27559 L 464.8819 235.27559 C 466.58267 240.94488 467.43307 241.65354 468.28346 249.44882 C 467.43307 257.2441 466.58267 257.95275 464.8819 263.62205" stroke="black" stroke-linecap="round" stroke-linejoin="round" stroke-width="0"/><path d="M 51.023622 90.70866 L 57.82677 90.70866 C 74.834645 89.29134 76.535433 85.03937 85.03937 76.535433 C 76.535433 68.031496 74.834645 63.779527 57.82677 62.362204 L 51.023622 62.362204 C 52.72441 68.031496 53.574803 68.740157 54.425197 76.535433 C 53.574803 84.33071 52.72441 85.03937 51.023622 90.70866" fill="#ff91f6"/><path d="M 51.023622 90.70866 L 57.82677 90.70866 C 74.834645 89.29134 76.535433 85.03937 85.03937 76.535433 C 76.535433 68.031496 74.834645 63.779527 57.82677 62.362204 L 51.023622 62.362204 C 52.72441 68.031496 53.574803 68.740157 54.425197 76.535433 C 53.574803 84.33071 52.72441 85.03937 51.023622 90.70866" stroke="black" stroke-linecap="round" stroke-linejoin="round" stroke-width="0"/><rect x="136.06299" y="221.10236" width="116.22047" height="110.55118" fill="#a0c4ff"/><rect x="136.06299" y="221.10236" width="116.22047" height="110.55118" stroke="black" stroke-linecap="round" stroke-linejoin="round" stroke-width="0"/><circle cx="136.06299" cy="246.61417" r="14.173251" fill="#42ff23" fill-opacity=".46"/><circle cx="136.06299" cy="246.61417" r="14.173251" stroke="black" stroke-linecap="round" stroke-linejoin="round" stroke-width="0"/><path d="M 99.2126 260.7874 L 106.01575 260.7874 C 123.02362 259.37008 124.72441 255.11811 133.228346 246.61417 C 124.72441 238.11023 123.02362 233.85827 106.01575 232.44094 L 99.2126 232.44094 C 100.913385 238.11023 101.76378 238.8189 102.61417 246.61417 C 101.76378 254.40945 100.913385 255.11811 99.2126 260.7874" fill="#ff91f6"/><path d="M 99.2126 260.7874 L 106.01575 260.7874 C 123.02362 259.37008 124.72441 255.11811 133.228346 246.61417 C 124.72441 238.11023 123.02362 233.85827 106.01575 232.44094 L 99.2126 232.44094 C 100.913385 238.11023 101.76378 238.8189 102.61417 246.61417 C 101.76378 254.40945 100.913385 255.11811 99.2126 260.7874" stroke="black" stroke-linecap="round" stroke-linejoin="round" stroke-width="0"/><rect x="337.32283" y="221.10236" width="116.22047" height="110.55118" fill="#a0c4ff"/><rect x="337.32283" y="221.10236" width="116.22047" height="110.55118" stroke="black" stroke-linecap="round" stroke-linejoin="round" stroke-width="0"/><circle cx="337.32283" cy="249.44882" r="14.173251" fill="#42ff23" fill-opacity=".46"/><circle cx="337.32283" cy="249.44882" r="14.173251" stroke="black" stroke-linecap="round" stroke-linejoin="round" stroke-width="0"/><circle cx="252.28346" cy="249.44882" r="14.173251" fill="#42ff23" fill-opacity=".46"/><circle cx="252.28346" cy="249.44882" r="14.173251" stroke="black" stroke-linecap="round" stroke-linejoin="round" stroke-width="0"/><line x1="266.4567" y1="249.44882" x2="304.2496" y2="249.44882" marker-end="url(#FilledArrow_Marker)" stroke="black" stroke-linecap="round" stroke-linejoin="round" stroke-width="4"/><circle cx="456.37795" cy="79.37008" r="14.173251" fill="#42ff23" fill-opacity=".46"/><circle cx="456.37795" cy="79.37008" r="14.173251" stroke="black" stroke-linecap="round" stroke-linejoin="round" stroke-width="0"/><line x1="470.54916" y1="79.12989" x2="590.55355" y2="77.095916" marker-end="url(#FilledArrow_Marker)" stroke="black" stroke-linecap="round" stroke-linejoin="round" stroke-width="4"/><rect x="130.3937" y="212.59842" width="331.65354" height="127.559054" fill="#ffa249" fill-opacity=".19"/><rect x="130.3937" y="212.59842" width="331.65354" height="127.559054" stroke="black" stroke-linecap="round" stroke-linejoin="round" stroke-width="0"/><circle cx="456.37795" cy="249.44882" r="14.173251" fill="#42ff23" fill-opacity=".46"/><circle cx="456.37795" cy="249.44882" r="14.173251" stroke="black" stroke-linecap="round" stroke-linejoin="round" stroke-width="0"/><rect x="85.03937" y="39.68504" width="663.3071" height="127.559054" fill="#ffa249" fill-opacity=".19"/><rect x="85.03937" y="39.68504" width="663.3071" height="127.559054" stroke="black" stroke-linecap="round" stroke-linejoin="round" stroke-width="0"/></g></g></svg>
